/* XPM */
static char * app_icon_xpm[] = {
"32 32 2 1",
". c #121212",
"X c #f5f5f5",
"................................",
"................................",
"XX..........XX......XXXXXXXXXX..",
"XX..........XX......XXXXXXXXXX..",
"XXXX......XXXX....XX..........XX",
"XXXX......XXXX....XX..........XX",
"XX..XX..XX..XX....XX..........XX",
"XX..XX..XX..XX....XX..........XX",
"XX....XX....XX....XX..........XX",
"XX....XX....XX....XX..........XX",
"XX..........XX....XX..........XX",
"XX..........XX....XX..........XX",
"XX..........XX....XX..........XX",
"XX..........XX....XX..........XX",
"XX..........XX....XX..........XX",
"XX..........XX....XX..........XX",
"XX..........XX....XX..........XX",
"XX..........XX....XX..........XX",
"XX..........XX....XX..........XX",
"XX..........XX....XX..........XX",
"XX..........XX....XX..........XX",
"XX..........XX....XX..........XX",
"XX..........XX....XX..........XX",
"XX..........XX....XX..........XX",
"XX..........XX....XX..........XX",
"XX..........XX....XX..........XX",
"XX..........XX....XX..........XX",
"XX..........XX....XX..........XX",
"XX..........XX......XXXXXXXXXX..",
"XX..........XX......XXXXXXXXXX..",
"................................",
"................................"
};
